<svg width="30" height="37" viewBox="0 0 30 37" fill="none" xmlns="http://www.w3.org/2000/svg">
<path d="M11.6343 0H12.6765C13.4017 0.270299 14.0989 0.644731 14.7308 1.06901C14.9336 1.88102 15.2881 2.74509 14.9814 3.57593C14.7203 3.80524 14.3659 3.8994 14.0511 4.04009C14.0884 4.36024 14.1432 4.67817 14.1957 4.99611C14.7902 4.94847 15.3673 4.80003 15.9514 4.69257C16.0319 4.36245 16.0517 4.00353 16.272 3.72326C16.3198 3.94704 16.3583 4.17302 16.3886 4.40012C16.7011 4.57293 17.0042 4.81775 17.3924 4.77898C19.8407 4.7812 22.2902 4.77234 24.7373 4.78009C25.0066 4.76015 25.1349 5.03156 25.3203 5.17114C25.3261 4.67707 25.3237 4.18299 25.3471 3.68892C25.4193 3.69114 25.5639 3.69335 25.6362 3.69446C25.6514 4.12871 25.6024 4.57404 25.7295 4.99722C25.8659 5.02713 26.0058 5.03599 26.1468 5.0526C26.1538 5.2221 26.1597 5.39159 26.1702 5.56219C26.9221 5.58323 27.6823 5.63087 28.4284 5.50901C28.9297 5.43701 29.4381 5.48575 29.944 5.48686C29.9522 5.65635 29.9685 5.82473 30 5.99311C29.3751 6.03632 28.7432 6.0762 28.1218 5.9776C27.1262 5.86239 26.1317 6.0629 25.1372 6.00973C25.1034 6.13823 25.0719 6.26674 25.0404 6.39524C24.0844 6.40521 23.1284 6.3897 22.1736 6.39413C21.8565 6.38638 21.5079 6.45174 21.3074 6.70542C21.0264 7.03886 20.686 7.32356 20.4155 7.66476C20.3281 8.29066 20.5857 8.89772 20.7338 9.49814C20.5088 9.57569 20.2826 9.6488 20.0611 9.72856C19.8337 10.4054 19.9235 11.2717 19.2718 11.7458C18.9115 12.0028 18.5933 12.323 18.1817 12.5058C17.8821 12.6343 17.5603 12.5002 17.2595 12.4581C16.1368 12.2964 15.2064 11.6406 14.2038 11.1886C14.1385 11.4467 14.0651 11.7015 13.9916 11.9574C14.2959 12.1446 14.6888 12.3042 14.7891 12.6719C14.943 13.2103 14.8147 13.7753 14.7926 14.3237C14.7448 14.8266 14.7296 15.3328 14.6795 15.8358C14.6305 16.3243 14.3332 16.7442 14.0278 17.1241C13.7421 17.0577 13.4623 16.979 13.1802 16.9081C12.8759 17.5285 13.1289 18.2995 13.6302 18.7614C14.9336 20.1085 15.6401 21.8422 16.3024 23.5316C16.4154 23.8883 16.8013 24.0999 16.8666 24.4754C16.9762 24.8742 17.1313 25.2741 17.0951 25.6928C17.045 26.4273 16.989 27.1618 16.9109 27.894C16.8573 28.4313 16.6474 28.9675 16.771 29.5103C16.8631 29.9523 16.9203 30.4198 16.75 30.8529C16.5204 31.3968 16.5227 31.9917 16.5192 32.5689C16.5297 32.9488 16.5518 33.3665 16.8293 33.6678C17.1581 34.0522 17.4787 34.451 17.8716 34.7789C18.3578 35.0813 19.027 35.0835 19.4268 35.5211C19.5528 35.7604 19.463 36.0396 19.4595 36.2954C18.1969 36.4771 16.876 36.4904 15.6495 36.116C14.957 35.9022 14.1933 36.2689 13.5311 35.9077C13.5673 35.1555 13.7585 34.4211 14.0383 33.7187C14.1537 33.1948 14.0278 32.6519 14.0161 32.1213C14.0079 31.6627 13.7596 31.2572 13.664 30.8163C13.39 29.8703 13.3119 28.8855 13.2653 27.9084C13.2047 27.4287 13.6325 27.0665 13.65 26.5979C13.7398 26.1825 13.6733 25.756 13.4029 25.4126C12.933 25.3993 12.3 25.5167 12.0365 25.037C11.4862 24.2638 10.9511 23.4795 10.402 22.7063C10.2108 22.3728 9.75141 22.4515 9.43662 22.3052C9.15565 22.0593 9.01575 21.7115 8.84087 21.398C8.73828 21.7569 8.59837 22.1169 8.31857 22.3883C7.87787 22.8093 7.71932 23.3942 7.49081 23.9281C7.32992 24.3137 7.18536 24.7091 7.12706 25.1212C7.06527 25.4325 7.05128 25.797 6.75748 26.0008C6.32611 26.311 6.17223 26.8339 5.77817 27.1751C5.48437 27.4409 5.30483 27.8032 5.20806 28.1721C5.17658 28.5055 5.27802 28.8434 5.18941 29.1724C5.02969 29.775 4.67993 30.3068 4.42344 30.8728C4.24157 31.2705 4.14713 31.6993 3.94777 32.0903C3.81486 32.3639 3.47444 32.4525 3.2879 32.6819C2.74694 33.5659 2.57439 34.6316 2.76792 35.6341C2.92298 36.0318 3.03607 36.4483 2.94047 36.8759C2.6082 36.9191 2.27826 36.9712 1.94483 37H0.91421C0.646063 36.9468 0.36976 36.9069 0.12493 36.7873C-0.0581098 36.2434 -0.0278004 35.6474 0.136585 35.1024C0.377918 34.2826 0.5971 33.4573 0.815115 32.6331C0.962013 32.2288 0.613419 31.8665 0.644897 31.4622C0.609921 30.8662 0.998152 30.3743 1.27912 29.8769C1.54261 29.4349 1.44934 28.9021 1.63238 28.4357C2.04626 27.4232 2.82855 26.599 3.29489 25.6109C3.43829 25.2087 3.28323 24.7811 3.31121 24.3668C3.34619 23.5814 3.50941 22.806 3.65165 22.0327C3.69945 21.7347 3.80087 21.4201 3.67963 21.1266C3.55021 20.7765 3.45928 20.4043 3.51057 20.031C3.5642 19.6875 3.34852 19.3463 3.48376 19.0107C3.55488 18.726 3.83002 18.5654 4.05037 18.3881C4.09001 17.2183 3.64231 16.0684 3.83002 14.9019C4.04454 14.6493 4.38963 14.5585 4.68925 14.4311C4.24973 14.3447 3.8102 14.2572 3.373 14.1652C3.35552 13.6933 3.42314 13.2258 3.5269 12.765C3.68779 12.046 3.59918 11.3027 3.71926 10.5793C3.73791 10.3954 3.94894 10.3334 4.11565 10.3268C4.51438 10.2991 4.9166 10.2813 5.30832 10.1916C5.19174 9.27769 5.09497 8.34494 5.31182 7.43545C5.52168 6.36201 6.02766 5.27416 6.9755 4.60949C7.62838 4.19075 8.57156 3.94371 9.25358 4.44332C9.30955 4.40677 9.42147 4.33476 9.47743 4.29931C9.08104 3.28347 9.16848 2.10922 9.79804 1.19419C10.2049 0.570509 10.9184 0.216018 11.6343 0ZM18.036 6.98901C18.001 7.25488 17.9147 7.51853 17.6442 7.64593C18.001 7.62377 18.3624 7.62488 18.7145 7.55177C18.7064 7.3568 18.6994 7.16293 18.6912 6.96796C18.4708 6.9724 18.2528 6.97904 18.036 6.98901ZM17.2968 7.74009C17.2665 7.77775 17.2047 7.85087 17.1744 7.88853C17.2304 8.24856 17.5137 8.54323 17.7025 8.85563C17.9777 8.48784 18.2563 8.12006 18.5186 7.74341C18.1118 7.72569 17.7025 7.70021 17.2968 7.74009Z" fill="white"/>
</svg>
